<?xml version="1.0" standalone="no"?>
<!DOCTYPE svg PUBLIC "-//W3C//DTD SVG 20010904//EN"
 "http://www.w3.org/TR/2001/REC-SVG-20010904/DTD/svg10.dtd">
<svg version="1.0" xmlns="http://www.w3.org/2000/svg"
 width="180.000000pt" height="50.000000pt" viewBox="0 0 180.000000 50.000000"
 preserveAspectRatio="xMidYMid meet">

<g transform="translate(0.000000,50.000000) scale(0.100000,-0.100000)"
fill="#000000" stroke="none">
<path d="M0 250 l0 -250 790 0 791 0 6 31 c4 22 8 27 14 17 6 -9 9 -3 9 18 0
37 -16 54 -52 54 -15 0 -28 5 -28 10 0 6 13 10 28 10 36 0 52 16 52 52 0 15 5
28 10 28 6 0 10 -13 10 -28 0 -31 16 -52 39 -51 10 0 7 4 -6 9 -28 11 -31 35
-19 155 3 28 8 83 11 123 l6 72 -830 0 -831 0 0 -250z m204 179 c-3 -5 -10 -7
-15 -3 -5 3 -7 10 -3 15 3 5 10 7 15 3 5 -3 7 -10 3 -15z m-59 -33 c24 -23 24
-24 5 -29 -11 -3 -20 -12 -20 -21 0 -23 -17 -20 -23 4 -3 11 -12 20 -21 20
-12 0 -11 5 7 24 12 13 23 24 24 25 1 1 14 -10 28 -23z m292 -10 c1 -1 5 -15
9 -31 l7 -30 -30 28 c-33 31 -55 34 -74 11 -15 -18 -3 -30 71 -77 71 -45 40
-107 -54 -107 -52 0 -54 1 -58 30 -6 38 1 45 20 19 18 -27 52 -39 75 -27 32
16 19 43 -35 74 -71 40 -77 90 -13 114 15 6 70 3 82 -4z m653 -7 c7 -11 9 -28
5 -37 -5 -13 -8 -12 -21 6 -8 12 -22 22 -31 22 -13 0 -14 -15 -11 -95 l3 -95
-32 0 c-32 0 -43 12 -23 25 6 3 10 42 10 86 0 71 -2 79 -19 79 -10 0 -26 -10
-34 -22 l-16 -23 0 32 c-1 30 2 32 37 36 98 10 121 8 132 -14z m178 9 c14 -14
16 -48 3 -48 -5 0 -14 7 -21 15 -7 8 -28 15 -46 15 -31 0 -34 -3 -34 -30 0
-38 23 -49 50 -25 20 18 20 17 20 -18 0 -21 -4 -37 -10 -37 -5 0 -10 5 -10 10
0 6 -12 10 -26 10 -23 0 -25 -3 -22 -37 3 -35 6 -38 36 -41 24 -3 38 3 52 20
l19 23 1 -32 0 -33 -77 0 -78 0 4 90 c2 58 -1 95 -8 104 -16 19 -1 24 75 25
34 1 65 -4 72 -11z m107 3 c3 -5 1 -12 -5 -16 -5 -3 -10 -23 -10 -43 l0 -36
35 34 c19 19 35 42 35 52 0 13 8 18 28 18 43 0 46 -11 11 -39 l-31 -26 26 -60
c15 -33 34 -67 43 -77 15 -17 14 -18 -27 -18 -33 0 -41 3 -36 15 5 15 -30 105
-41 105 -31 0 -58 -79 -33 -95 22 -13 8 -25 -30 -25 -38 0 -52 12 -30 25 13 8
13 162 0 170 -17 11 0 25 30 25 16 0 31 -4 35 -9z m-830 -11 c-5 -9 30 -80 40
-80 10 0 45 71 40 80 -4 6 7 10 27 10 26 -1 30 -3 16 -10 -46 -28 -97 -157
-68 -175 21 -13 9 -25 -25 -25 -34 0 -46 12 -25 25 6 3 10 20 10 37 0 30 -23
71 -68 121 l-26 27 43 0 c26 0 40 -4 36 -10z m240 -51 c78 -95 78 -95 73 -11
-4 71 -3 72 21 72 19 0 22 -3 13 -12 -8 -8 -12 -46 -12 -105 0 -51 -4 -93 -9
-93 -4 0 -37 34 -72 76 -70 84 -74 83 -67 -18 4 -55 3 -58 -19 -58 -24 0 -31
14 -13 25 13 8 13 141 0 166 -9 16 -7 19 12 19 16 0 39 -19 73 -61z m-541 -11
c-3 -4 -11 -5 -20 -1 -11 4 -12 8 -3 20 10 11 14 11 20 1 4 -6 6 -15 3 -20z
m1354 -239 c-3 -8 -7 -3 -11 10 -4 17 -3 21 5 13 5 -5 8 -16 6 -23z"/>
<path d="M1640 105 c-6 -8 -10 -20 -7 -27 3 -8 6 -6 6 5 1 10 11 22 24 27 15
6 17 9 6 9 -9 1 -22 -6 -29 -14z"/>
</g>
</svg>
