<?xml version="1.0" encoding="UTF-8"?>
<!DOCTYPE svg PUBLIC "-//W3C//DTD SVG 1.1//EN" "http://www.w3.org/Graphics/SVG/1.1/DTD/svg11.dtd">
<!-- Creator: CorelDRAW -->
<svg xmlns="http://www.w3.org/2000/svg" xml:space="preserve" width="6.82666in" height="6.82666in" style="shape-rendering:geometricPrecision; text-rendering:geometricPrecision; image-rendering:optimizeQuality; fill-rule:evenodd; clip-rule:evenodd"
viewBox="0 0 6.82666 6.82666"
 xmlns:xlink="http://www.w3.org/1999/xlink">
 <defs>
  <style type="text/css">
   <![CDATA[
    .fil0 {fill:none}
    .fil1 {fill:#212121;fill-rule:nonzero}
    .fil2 {fill:#66BB6A;fill-rule:nonzero}
   ]]>
  </style>
 </defs>
 <g id="Layer_x0020_1">
  <metadata id="CorelCorpID_0Corel-Layer"/>
  <g id="_371358040">
   <rect id="_371359120" class="fil0" width="6.82666" height="6.82666"/>
   <rect id="_371359312" class="fil0" x="0.853331" y="0.853331" width="5.12" height="5.12"/>
  </g>
  <path class="fil1" d="M2.44967 4.03508l-1.08263 -1.7966c-0.0878543,0.152291 -0.159079,0.314768 -0.211181,0.484941 -0.0665669,0.217425 -0.102413,0.448992 -0.102413,0.689697 0,0.120587 0.00898819,0.238677 0.0263819,0.353736 0.0138268,0.0914803 0.0328583,0.180972 0.0568031,0.268224l1.31304 0zm-0.989665 -2.05519l1.26959 2.10685 0.0974252 0.161669 -0.188677 0 -1.58142 0 -0.0783071 0 -0.0233583 -0.0750039c-0.0379685,-0.121945 -0.0669567,-0.247122 -0.0862677,-0.37489 -0.0190433,-0.125984 -0.0288858,-0.254654 -0.0288858,-0.385406 0,-0.260346 0.0393465,-0.512693 0.112421,-0.751366 0.0756811,-0.247189 0.187043,-0.478047 0.32789,-0.686441l0.0934803 -0.138307 0.0861063 0.14289z"/>
  <path class="fil1" d="M3.35744 2.26103l2.1144 0c-0.147756,-0.262736 -0.344098,-0.494343 -0.576736,-0.682512 -0.253807,-0.205287 -0.55072,-0.359016 -0.874795,-0.445256l-0.66287 1.12777zm2.28908 0.213339l-2.47504 0 -0.185953 0 0.0942874 -0.160421 0.79752 -1.35685 0.0396693 -0.0674921 0.075748 0.0174921c0.385539,0.0890433 0.737988,0.264807 1.03568,0.505591 0.301736,0.244055 0.547358,0.554772 0.714339,0.909598l0.0715709 0.152087 -0.167823 0z"/>
  <path class="fil2" d="M2.37644 2.92316l1.0985 -1.86897c-0.0196142,-0.000488189 -0.0402244,-0.000740157 -0.0619252,-0.000740157 -0.345094,0 -0.672787,0.074437 -0.967972,0.207945 -0.28361,0.128272 -0.537413,0.310839 -0.748043,0.534126l0.679445 1.12764zm1.36941 -1.91048l-1.27677 2.1723 -0.0906929 0.154307 -0.0922244 -0.153059 -0.812551 -1.34855 -0.040189 -0.0667008 0.0518583 -0.0587165c0.240512,-0.272295 0.537461,-0.493602 0.872256,-0.645024 0.322402,-0.145815 0.679748,-0.227118 1.05548,-0.227118 0.0389882,0 0.081374,0.00126772 0.126756,0.00361417 0.0405236,0.00209055 0.0820197,0.00527953 0.124417,0.00936614l0.166047 0.0160197 -0.0843819 0.143567z"/>
  <path class="fil2" d="M2.82769 5.69939l0.660874 -1.1527 -2.14409 0c0.154614,0.280744 0.364697,0.526996 0.615441,0.723791 0.253028,0.198587 0.547374,0.346681 0.86778,0.428913zm0.93737 -1.20646l-0.781008 1.36224 -0.0186929 -0.0106929 -0.0355472 0.0958701c-0.40987,-0.0783622 -0.785406,-0.254232 -1.10157,-0.502374 -0.320969,-0.251909 -0.580874,-0.57852 -0.753469,-0.953382l-0.0696378 -0.151252 0.166303 0 2.50112 0 0.183992 0 -0.0914921 0.159587z"/>
  <path class="fil2" d="M4.36839 2.77219l1.06817 1.8537c0.094311,-0.156638 0.171031,-0.32511 0.227319,-0.502709 0.0709921,-0.223984 0.109343,-0.462488 0.109343,-0.710059 0,-0.125244 -0.00941339,-0.24648 -0.0275827,-0.363094 -0.0146969,-0.0943268 -0.0351535,-0.187071 -0.0610157,-0.277839l-1.31623 0zm0.970618 2.10985l-1.24674 -2.1636 -0.0919606 -0.159587 0.184043 0 1.57906 0 0.0774213 0 0.0238307 0.0741693c0.039811,0.123933 0.0703976,0.252374 0.0909843,0.384504 0.0203701,0.130732 0.0309213,0.262894 0.0309213,0.395598 0,0.269669 -0.0418583,0.529736 -0.11935,0.774224 -0.0802598,0.253236 -0.198933,0.489803 -0.349035,0.703028l-0.0958819 0.136197 -0.0832835 -0.144531z"/>
  <path class="fil1" d="M4.43902 3.9172l-1.06402 1.85574c0.0121732,0.000185039 0.0248346,0.000275591 0.0380157,0.000275591 0.337535,0 0.658429,-0.0710433 0.948559,-0.198957 0.278319,-0.122701 0.528335,-0.297264 0.737661,-0.511272l-0.66022 -1.14578zm-1.33482 1.89956l1.24189 -2.16596 0.0920591 -0.160567 0.0925236 0.160567 0.792165 1.37477 0.0387598 0.0672717 -0.0525079 0.057311c-0.240169,0.262114 -0.533169,0.474276 -0.861669,0.619102 -0.316874,0.139705 -0.666831,0.217295 -1.03439,0.217295 -0.033937,0 -0.0721339,-0.00111811 -0.113717,-0.00314567 -0.0352598,-0.00171654 -0.0727126,-0.0044252 -0.111772,-0.00789764l-0.165898 -0.014752 0.082563 -0.144z"/>
 </g>
</svg>
